HIERARCHY
ROOT Hips
{
	OFFSET 0.00000 0.00000 0.00000
	CHANNELS 6 Xposition Yposition Zposition Zrotation Yrotation Xrotation 
	JOINT LHipJoint
	{
		OFFSET 0 0 0
		CHANNELS 3 Zrotation Yrotation Xrotation
		JOINT LeftHip
		{
			OFFSET 1.66553 -1.82942 0.76350
			CHANNELS 3 Zrotation Yrotation Xrotation
			JOINT LeftKnee
			{
				OFFSET 2.41740 -6.64177 0.00000
				CHANNELS 3 Zrotation Yrotation Xrotation
				JOINT LeftAnkle
				{
					OFFSET 2.71614 -7.46254 0.00000
					CHANNELS 3 Zrotation Yrotation Xrotation
					JOINT LeftToe
					{
						OFFSET 0.08005 -0.21993 1.82495
						CHANNELS 3 Zrotation Yrotation Xrotation
						End Site
						{
							OFFSET 0.00000 -0.00000 0.93441
						}
					}
				}
			}
		}
	}
	JOINT RHipJoint
	{
		OFFSET 0 0 0
		CHANNELS 3 Zrotation Yrotation Xrotation
		JOINT RightHip
		{
			OFFSET -1.63725 -1.82942 0.76350
			CHANNELS 3 Zrotation Yrotation Xrotation
			JOINT RightKnee
			{
				OFFSET -2.40538 -6.60872 0.00000
				CHANNELS 3 Zrotation Yrotation Xrotation
				JOINT RightAnkle
				{
					OFFSET -2.73312 -7.50919 0.00000
					CHANNELS 3 Zrotation Yrotation Xrotation
					JOINT RightToe
					{
						OFFSET -0.15567 -0.42769 1.93504
						CHANNELS 3 Zrotation Yrotation Xrotation
						End Site
						{
							OFFSET -0.00000 -0.00000 1.00100
						}
					}
				}
			}
		}
	}
	JOINT lowerback
	{
		OFFSET 0 0 0
		CHANNELS 3 Zrotation Yrotation Xrotation
		JOINT Chest
		{
			OFFSET 0.00326 2.30118 -0.13017
			CHANNELS 3 Zrotation Yrotation Xrotation
			JOINT Chest2
			{
				OFFSET 0.02887 2.30677 0.00834
				CHANNELS 3 Zrotation Yrotation Xrotation
				JOINT lowerneck
				{
					OFFSET 0 0 0
					CHANNELS 3 Zrotation Yrotation Xrotation
					JOINT Neck
					{
						OFFSET 0.12946 1.68326 0.00713
						CHANNELS 3 Zrotation Yrotation Xrotation
						JOINT Head
						{
							OFFSET -0.24364 1.67243 -0.16079
							CHANNELS 3 Zrotation Yrotation Xrotation
							End Site
							{
								OFFSET -0.09229 1.70819 -0.06383
							}
						}
					}
				}
				JOINT LeftCollar
				{
					OFFSET 0 0 0
					CHANNELS 3 Zrotation Yrotation Xrotation
					JOINT LeftShoulder
					{
						OFFSET 3.28104 0.69567 -0.00556
CHANNELS 3 Zrotation Xrotation Yrotation
						JOINT LeftElbow
						{
OFFSET 0 -5.707060 -0.000000
CHANNELS 3 Zrotation Xrotation Yrotation
							JOINT LeftWrist
							{
OFFSET 0 -3.332430 0.000000
CHANNELS 3 Zrotation Xrotation Yrotation
								JOINT lhand
								{
									OFFSET 0 0 0
CHANNELS 3 Zrotation Xrotation Yrotation
									JOINT LFingers
									{
OFFSET 0 -0.792690 0.000000
CHANNELS 3 Zrotation Xrotation Yrotation
										End Site
										{
OFFSET 0 -0.639090 0.000000
										}
									}
								}
								JOINT LThumb
								{
OFFSET 0 0.000000 0.000000
CHANNELS 3 Zrotation Xrotation Yrotation
									End Site
									{
OFFSET 0 -0.648840 0.648840
									}
								}
							}
						}
					}
				}
				JOINT RightCollar
				{
					OFFSET 0 0 0
					CHANNELS 3 Zrotation Yrotation Xrotation
					JOINT RightShoulder
					{
						OFFSET -3.40955 0.64424 0.14010
CHANNELS 3 Zrotation Xrotation Yrotation
						JOINT RightElbow
						{
OFFSET 0 -5.881760 -0.000000
CHANNELS 3 Zrotation Xrotation Yrotation
							JOINT RightWrist
							{
OFFSET 0 -3.281560 0.000000
CHANNELS 3 Zrotation Xrotation Yrotation
								JOINT rhand
								{
									OFFSET 0 0 0
CHANNELS 3 Zrotation Xrotation Yrotation
									JOINT RFingers
									{
OFFSET 0 -0.863130 0.000000
CHANNELS 3 Zrotation Xrotation Yrotation
										End Site
										{
OFFSET 0 -0.695870 0.000000
										}
									}
								}
								JOINT RThumb
								{
OFFSET 0 0.000000 0.000000
CHANNELS 3 Zrotation Xrotation Yrotation
									End Site
									{
OFFSET 0 -0.706500 0.706500
									}
								}
							}
						}
					}
				}
			}
		}
	}
}
MOTION
Frames: 7
Frame Time: 0.008333333333333333
-2.827700 17.716000 -13.206300 1.398700 -7.801300 0.242100 0.000000 0.000000 0.000000 -23.372800 -2.383000 -13.079400 3.021300 10.729400 31.372500 0.071100 -12.770800 -9.861700 1.345100 -7.342800 -20.734900 0.000000 0.000000 0.000000 8.562600 -4.201100 -18.677500 -7.784700 -15.958600 51.783400 -0.583800 -5.988900 -17.852000 -1.999500 -8.865000 25.373800 6.795200 -1.421800 7.366100 3.246700 -0.770300 -6.252700 -0.171200 -0.743300 -10.961100 16.265800 7.225900 1.859500 -11.380200 10.110300 1.571400 -5.856400 5.129100 1.574000 -0.000000 0.000000 0.000000 41.398500 18.907400 12.117500 20.186400 -30.866300 5.626700 29.007900 9.041200 -30.172300 0.000000 0.000000 0.000000 -7.125000 0.000000 0.000000 -2.730700 63.574100 1.230600 -0.000000 0.000000 0.000000 -35.440900 8.500600 -29.316300 -22.462700 -33.496000 -6.839400 13.310000 22.865000 -28.734700 0.000000 0.000000 0.000000 7.125000 0.000000 -0.000000 25.019700 2.738000 26.502800
-2.989026 18.317675 -12.961347 4.948168 -8.299754 1.008617 0.000000 0.000000 0.000000 -26.365353 -0.421504 -10.406617 1.754671 8.333959 23.733736 -0.301511 -10.092422 0.712287 2.635388 -10.078093 -29.231635 0.000000 0.000000 0.000000 4.834541 -1.352336 -15.735120 -4.378978 -12.645668 38.060337 -0.274420 -6.252632 -14.124724 -2.060687 -8.991285 25.768161 7.257885 -1.173880 5.214495 4.271226 -0.507721 -6.429681 0.582552 -0.589362 -9.856108 16.630615 8.458905 2.586030 -13.042788 12.004466 2.103545 -6.338288 6.105602 2.002574 0.000000 0.000000 0.000000 43.492172 19.017079 14.000297 19.759099 -30.351022 5.409099 32.155469 10.872517 -31.160462 0.000000 0.000000 0.000000 -7.125000 0.000000 0.000000 0.869723 65.513614 -0.431134 0.000000 0.000000 0.000000 -39.881778 8.106953 -28.276429 -23.725730 -34.872806 -7.549202 -4.682239 10.054706 -27.078058 0.000000 0.000000 0.000000 7.125000 0.000000 0.000000 15.111180 3.608618 14.662992
-3.254184 18.648746 -12.781079 6.912680 -6.648106 2.258759 0.000000 0.000000 0.000000 -26.695256 -1.929895 -9.643100 1.386855 7.451147 21.059109 -0.199084 -7.910968 3.588483 3.871532 -11.986787 -35.686213 0.000000 0.000000 0.000000 3.341609 2.380599 -13.733047 -2.915245 -10.555849 30.796860 0.015028 -5.285935 -7.046946 -2.507807 -9.852044 28.498899 8.329368 -1.121470 2.750814 5.318273 -0.549072 -6.508973 1.051461 -0.614052 -8.507596 17.916957 9.152754 1.767832 -14.789898 13.034033 3.266667 -6.942540 6.603397 2.839513 0.000000 0.000000 0.000000 49.351966 18.161286 12.356342 19.223957 -29.696028 5.141345 35.716318 11.098218 -29.793714 0.000000 0.000000 0.000000 -7.125000 0.000000 0.000000 6.284135 65.067888 -3.056191 0.000000 0.000000 0.000000 -41.425809 8.439081 -29.503889 -24.264053 -35.442145 -7.859194 -25.186370 -0.303732 -24.783158 0.000000 0.000000 0.000000 7.125000 0.000000 0.000000 2.619419 2.968900 2.487205
-3.562002 18.705197 -12.662033 8.074779 -5.993489 2.469306 0.000000 0.000000 0.000000 -25.361184 -1.109281 -10.042936 1.435778 7.575671 21.432657 0.013669 -5.002981 -3.908044 3.649839 -11.679221 -34.606505 0.000000 0.000000 0.000000 3.944245 4.801995 -11.671032 -2.702418 -10.196917 29.616875 0.065722 -7.647672 -9.324591 -2.570300 -9.962889 28.858320 8.847808 -1.167625 2.426815 6.134636 -0.560898 -6.493254 1.631760 -0.615897 -8.314528 16.590375 9.790614 4.110247 -13.828558 14.050979 1.476927 -6.525950 7.178895 1.932220 0.000000 0.000000 0.000000 53.577383 19.598557 11.706915 19.425961 -29.944534 5.241803 36.566521 11.174257 -28.813526 0.000000 0.000000 0.000000 -7.125000 0.000000 0.000000 7.710368 64.227281 -3.599680 0.000000 0.000000 0.000000 -39.987120 8.646701 -30.102607 -24.294323 -35.473938 -7.876688 -41.123116 -8.238748 -21.179065 0.000000 0.000000 0.000000 7.125000 0.000000 0.000000 -7.674315 2.968865 -7.334223
-3.947574 18.430262 -12.561452 10.607362 -5.931214 1.590600 0.000000 0.000000 0.000000 -24.624278 -0.754789 -7.005239 0.942932 6.183250 17.317492 0.260502 -2.008592 -9.156046 2.426108 -9.700653 -28.014013 0.000000 0.000000 0.000000 3.241231 4.725224 -11.029212 -3.097511 -10.850785 31.778740 -0.379772 -6.405547 -15.719711 -2.479450 -9.780547 28.285976 7.527911 -1.454069 3.154892 5.415104 -1.043390 -5.913703 1.630788 -0.781666 -8.082805 16.988503 9.965075 4.494506 -14.722741 14.332463 0.632379 -6.884027 7.333912 1.763261 0.000000 0.000000 0.000000 53.952833 22.751432 12.966272 19.577568 -30.130089 5.317716 36.528117 11.044851 -28.047705 0.000000 0.000000 0.000000 -7.125000 0.000000 0.000000 7.819226 63.360465 -3.494566 0.000000 0.000000 0.000000 -34.441340 7.426817 -30.561351 -23.991494 -35.155246 -7.701656 -45.771937 -10.350540 -18.682745 0.000000 0.000000 0.000000 7.125000 0.000000 0.000000 -11.009102 4.518420 -10.303958
-4.346276 18.064083 -12.532444 11.332930 -6.395322 1.132957 0.000000 0.000000 0.000000 -21.713103 -2.244621 -3.935014 0.616534 5.025175 13.980368 0.284671 1.488546 -10.733400 1.919732 -8.696391 -24.850471 0.000000 0.000000 0.000000 3.666673 4.194877 -12.952562 -3.936035 -12.074300 35.996132 -1.049688 -3.247158 -20.780861 -2.023387 -8.913246 25.525298 7.181015 -1.246548 5.241326 4.719267 -0.616409 -5.775851 1.091741 -0.592367 -9.145561 17.224424 9.691407 4.408238 -15.884524 13.906124 -0.408781 -7.334273 7.122888 1.511649 0.000000 0.000000 0.000000 48.525258 24.764822 15.291288 20.059597 -30.714001 5.561778 36.448643 11.355365 -29.345991 0.000000 0.000000 0.000000 -7.125000 0.000000 0.000000 7.426180 64.786259 -3.564684 0.000000 0.000000 0.000000 -28.466589 8.616822 -29.620305 -23.316140 -34.432302 -7.316411 -38.393953 -8.788603 -18.324135 0.000000 0.000000 0.000000 7.125000 0.000000 0.000000 -6.565139 7.195005 -5.731838
-4.720596 17.687881 -12.535019 11.269362 -5.809546 1.004965 0.000000 0.000000 0.000000 -19.013026 -5.683012 -4.303173 0.964854 6.253611 17.522180 0.421763 1.774997 -13.042348 2.338658 -9.538443 -27.494564 0.000000 0.000000 0.000000 5.035808 1.939574 -14.500933 -4.570457 -12.883088 38.932495 -1.766115 -1.781805 -25.811079 -1.117426 -6.715193 18.874391 6.817966 -1.448299 6.838974 4.080035 -0.804973 -5.767480 0.683890 -0.698912 -10.091797 17.726563 9.434023 4.465264 -17.273732 13.534152 -1.363185 -7.904474 6.952228 1.305090 0.000000 0.000000 0.000000 39.678524 25.500447 18.286478 19.578559 -30.131271 5.318232 34.346219 8.894161 -28.942279 0.000000 0.000000 0.000000 -7.125000 0.000000 0.000000 4.665036 63.734598 -2.121163 0.000000 0.000000 0.000000 -24.246542 9.186481 -29.161382 -21.946716 -32.916759 -6.556851 -27.480273 -0.950489 -18.203381 0.000000 0.000000 0.000000 7.125000 0.000000 0.000000 0.392724 9.641034 0.320675
